<?xml version="1.0" encoding="utf-8"?>
<!-- Generator: Adobe Illustrator 21.0.0, SVG Export Plug-In . SVG Version: 6.00 Build 0)  -->
<svg version="1.1" id="Calque_2" xmlns="http://www.w3.org/2000/svg" xmlns:xlink="http://www.w3.org/1999/xlink" x="0px" y="0px"
	 viewBox="0 0 1319 427" style="enable-background:new 0 0 1319 427;" xml:space="preserve">
<style type="text/css">
	.st0{fill:#0063B2;}
	.st1{fill:#F4A737;}
</style>
<polygon class="st0" points="573,417.9 466,417.9 532.9,6.9 639.9,6.9 "/>
<path class="st0" d="M376,6.9l-102,282.7l-12.1-60.9l0,0l-36-184.8c0,0-4.3-37-50.8-37H6.5l-2,7c0,0,51.6,10.7,111.9,47l93,357.1
	h111.5l170.3-411H376z"/>
<path class="st0" d="M1217.7,417.9h98.3l-85.7-411h-86c-39.7,0-49.4,30.6-49.4,30.6L935.2,417.9h111.5l22.3-61.1h136L1217.7,417.9z
	 M1099.9,272.5l56.2-153.8l31.6,153.8H1099.9z"/>
<path class="st0" d="M943.6,105.7l15.3-88.3c0,0-47.1-17.9-96.2-17.9c-53.1,0-179.2,23.2-179.2,136.1c0,106.2,148,107.5,148,163.3
	s-132.8,45.8-176.6,10.6l-15.9,92.3c0,0,47.8,23.2,120.8,23.2c73,0,183.2-37.8,183.2-140.7c0-106.9-149.3-116.8-149.3-163.3
	C793.6,74.5,897.8,80.5,943.6,105.7z"/>
<path class="st1" d="M261.9,228.7l-36-184.8c0,0-4.3-37-50.8-37H6.5l-2,7c0,0,81.1,16.8,158.8,79.7
	C237.6,153.7,261.9,228.7,261.9,228.7z"/>
</svg>
