<?xml version="1.0" encoding="utf-8"?>
<!-- Generator: Adobe Illustrator 21.0.0, SVG Export Plug-In . SVG Version: 6.00 Build 0)  -->
<svg version="1.1" id="Calque_1" xmlns="http://www.w3.org/2000/svg" xmlns:xlink="http://www.w3.org/1999/xlink" x="0px" y="0px"
	 viewBox="0 0 1594 427" style="enable-background:new 0 0 1594 427;" xml:space="preserve">
<style type="text/css">
	.st0{fill:#009CDE;}
	.st1{fill:#003087;}
</style>
<path class="st0" d="M1088.3,116.3c-6.8,44.3-40.6,44.3-73.3,44.3h-18.6l13.1-82.8c0.8-5,5.1-8.7,10.2-8.7h8.5
	c22.3,0,43.3,0,54.2,12.7C1088.7,89.5,1090.7,100.7,1088.3,116.3 M1074,0.6H950.5c-8.4,0-15.6,6.1-17,14.5l-49.9,316.6
	c-0.9,5.6,3,10.9,8.6,11.8c0.5,0.1,1,0.1,1.6,0.1h63.4c5.9,0,10.9-4.3,11.9-10.1l14.2-89.8c1.3-8.3,8.5-14.5,16.9-14.5h39.1
	c81.4,0,128.3-39.3,140.6-117.4c5.5-34.1,0.2-60.9-15.7-79.7C1146.5,11.5,1115.3,0.6,1074,0.6"/>
<path class="st1" d="M207.5,117.3c-6.8,44.3-40.6,44.3-73.4,44.3h-18.6l13.1-82.8c0.8-5,5.1-8.7,10.2-8.7h8.5
	c22.3,0,43.3,0,54.2,12.7C208,90.5,209.9,101.7,207.5,117.3 M193.2,1.6H69.7c-8.4,0-15.6,6.1-17,14.5L2.9,332.8
	c-0.9,5.6,2.9,10.9,8.6,11.8c0.5,0.1,1.1,0.1,1.6,0.1h59c8.4,0,15.6-6.1,16.9-14.5l13.5-85.4c1.3-8.3,8.5-14.5,16.9-14.5h39.1
	c81.4,0,128.3-39.4,140.6-117.4c5.5-34.1,0.2-60.9-15.7-79.7C265.7,12.5,234.6,1.6,193.2,1.6 M479.9,231
	c-5.7,33.8-32.5,56.5-66.7,56.5c-17.1,0-30.9-5.5-39.7-16c-8.8-10.3-12-25.1-9.3-41.5c5.3-33.5,32.6-56.9,66.3-56.9
	c16.8,0,30.4,5.6,39.4,16.1C478.9,199.8,482.5,214.6,479.9,231 M562.3,115.9h-59.1c-5.1,0-9.4,3.7-10.2,8.7l-2.6,16.5l-4.1-6
	c-12.8-18.6-41.3-24.8-69.8-24.8c-65.3,0-121.1,49.5-132,118.9c-5.7,34.7,2.4,67.8,22,90.9c18,21.2,43.8,30.1,74.5,30.1
	c52.7,0,81.9-33.8,81.9-33.8l-2.6,16.4c-0.9,5.6,2.9,10.9,8.6,11.8c0.5,0.1,1.1,0.1,1.6,0.1h53.2c8.4,0,15.6-6.1,17-14.5l32-202.4
	c0.9-5.6-3-10.9-8.6-11.8C563.4,115.9,562.8,115.9,562.3,115.9"/>
<path class="st0" d="M1361.7,231c-5.7,33.8-32.5,56.5-66.7,56.5c-17.1,0-30.9-5.5-39.7-16c-8.8-10.3-12-25.1-9.3-41.5
	c5.3-33.5,32.6-56.9,66.3-56.9c16.8,0,30.4,5.6,39.4,16.1C1360.7,199.8,1364.3,214.6,1361.7,231 M1444.1,115.9H1385
	c-5.1,0-9.4,3.7-10.2,8.7l-2.6,16.5l-4.1-6c-12.8-18.6-41.3-24.8-69.8-24.8c-65.3,0-121.1,49.5-132,118.9
	c-5.7,34.7,2.4,67.8,22,90.9c18,21.2,43.8,30.1,74.5,30.1c52.7,0,81.9-33.8,81.9-33.8l-2.6,16.4c-0.9,5.6,2.9,10.9,8.5,11.8
	c0.5,0.1,1.1,0.1,1.7,0.1h53.2c8.4,0,15.6-6.1,17-14.5l32-202.4c0.9-5.6-3-10.9-8.6-11.8C1445.2,115.9,1444.6,115.9,1444.1,115.9"/>
<path class="st1" d="M878.3,115.9h-59.5c-5.7,0-11,2.8-14.2,7.5l-82,120.7l-34.8-116c-2.2-7.3-8.9-12.2-16.4-12.3H613
	c-5.7,0-10.3,4.6-10.3,10.3c0,1.1,0.2,2.3,0.6,3.3l65.4,192.1l-61.6,86.9c-3.3,4.6-2.2,11.1,2.5,14.4c1.7,1.2,3.8,1.9,5.9,1.9H675
	c5.6,0,10.9-2.8,14.1-7.4L886.7,132c3.2-4.7,2.1-11.1-2.6-14.3C882.4,116.5,880.4,115.9,878.3,115.9"/>
<path class="st0" d="M1513.8,10.4l-50.7,322.4c-0.9,5.6,3,10.9,8.6,11.8c0.5,0.1,1.1,0.1,1.6,0.1h51c8.4,0,15.6-6.1,17-14.5
	l50-316.6c0.9-5.6-2.9-10.9-8.6-11.8c-0.5-0.1-1.1-0.1-1.6-0.1h-57C1518.9,1.6,1514.6,5.3,1513.8,10.4"/>
</svg>
