<?xml version="1.0" encoding="utf-8"?>
<!-- Generator: Adobe Illustrator 21.0.0, SVG Export Plug-In . SVG Version: 6.00 Build 0)  -->
<svg version="1.1" id="Calque_1" xmlns="http://www.w3.org/2000/svg" xmlns:xlink="http://www.w3.org/1999/xlink" x="0px" y="0px"
	 viewBox="0 0 81.3 31.5" style="enable-background:new 0 0 81.3 31.5;" xml:space="preserve">
<style type="text/css">
	.st0{fill:#A5AD44;}
	.st1{fill:#660033;}
</style>
<g>
	<g>
		<path class="st0" d="M54.1,20.3c1.3-2,1.3-4,0-5.9c1.2-1.7,3.3-2.4,5.2-1.9C61.4,13,63,15,63,17.1c0,2.3-1.4,4.3-3.5,4.9
			C57.4,22.7,55.3,21.9,54.1,20.3z M58,15.2c-1.2,0-2.1,0.9-2.1,2.1c0,1.1,0.9,2.1,2.1,2.1c1.2,0,2.1-0.9,2.1-2.1
			C60.1,16.1,59.2,15.2,58,15.2z M34.7,19l-3.5,0c-0.1,0.5-0.5,0.8-0.9,0.8c-0.8,0-0.9-0.9-0.9-1.6l5.2,0c0-0.3-0.1-0.6-0.1-0.8
			c0-0.7,0.2-1.5,0.5-2.1c-0.8-1.8-2.6-2.9-4.9-2.9c-2.4,0-4.7,2-4.7,5.2c0,3.3,3.1,4.9,4.9,4.9c1.6,0,3.9-0.8,4.8-2.5
			C34.9,19.5,34.8,19.3,34.7,19z M30.2,14.9c0.6,0,1,0.6,1,1.2h-1.9C29.3,15.4,29.6,14.9,30.2,14.9z M43.8,22.3l0-5.5
			c0-0.7,0.1-1.4,0.4-2c-0.9-1.5-2.5-2.5-4.3-2.5c-2.7,0-4.9,2.2-5,4.9c-0.1,2.6,2.1,5,4.9,5c1,0,2-0.3,2.8-0.9v0.8H43.8z
			 M39.9,19.4c-1.1,0-2.1-0.9-2.1-2.1c0-1.2,0.9-2.1,2.1-2.1c1.1,0,2.1,0.9,2.1,2.1C42,18.5,41.1,19.4,39.9,19.4z M47.3,26.3v-4.6
			c0.8,0.6,1.1,0.9,2.2,0.9c2.9,0,5.1-2.5,5.1-5.2c-0.1-2.8-2.3-5.1-5.1-5c-2.8,0-5.1,2.3-5.1,5.1l0,8.9H47.3z M47.3,17.4
			c0-1.2,0.9-2.1,2.1-2.1c1.2,0,2.1,0.9,2.2,2.1c0,1.2-1,2.1-2.1,2.1C48.3,19.5,47.3,18.6,47.3,17.4z M70.3,12.2
			c-0.9,0-1.6,0.7-1.6,1.6s0.7,1.6,1.6,1.6s1.6-0.7,1.6-1.6S71.2,12.2,70.3,12.2z M70.3,15.7c-0.4,0-0.8-0.2-1.1-0.5
			c-0.1,0-0.3,0-0.4,0c0,3.4,0,3.7,0,7c1,0,2.1,0,3.1,0c0-3.4,0-3.7,0-7c-0.1,0-0.3,0-0.4,0C71.1,15.5,70.7,15.7,70.3,15.7z
			 M66,19.2c0-2.3,0-4.6,0-6.9c-1,0-2.1,0-3.1,0c0,0.8,0,1.7,0,2.5c0.4,0.7,0.7,1.5,0.7,2.4c0,1-0.2,1.9-0.7,2.7c0,0.8,0,1.7,0,2.5
			c0.1,0,0.1,0,0.2,0c1,0,1.9,0,2.9,0c0.7,0,0.4,0,2.2,0c0-1,0-2,0-3.1C66.4,19.2,66.7,19.2,66,19.2z M78.3,16.1
			c-0.6-0.1-1.2-0.1-1.2-0.6c0-0.3,0.4-0.4,0.7-0.4c0.8,0,1.6,0.4,2.1,0.8l1.1-2.7c-1-0.6-2.5-0.8-3.7-0.8c-2.1,0-4.5,1-4.5,3.4
			c0,1.8,1.4,2.4,3,2.7c0.4,0.1,0.9,0.1,0.9,0.6c0,0.4-0.4,0.5-0.7,0.5c-0.7,0.1-1.7-0.5-2.4-0.9l-0.8-0.6l-0.5,1.3
			c0,0.6,0,1.3,0,2.2c1.3,0.5,2.9,0.9,4.3,0.9c2.2,0,4.6-1,4.6-3.5C81.3,16.9,79.9,16.4,78.3,16.1z"/>
	</g>
</g>
<g>
	<g>
		<path class="st1" d="M15.5,13.8c0,0.9-0.7,1.6-1.6,1.6s-1.6-0.7-1.6-1.6s0.7-1.6,1.6-1.6S15.5,13,15.5,13.8z M15,15.3
			c0.1,0,0.3,0,0.4,0c0,3.3,0,3.6,0,7c-1,0-2,0-3.1,0c0-3.3,0-3.7,0-7c0.1,0,0.3,0,0.4,0c0.3,0.3,0.7,0.5,1.1,0.5
			C14.4,15.8,14.7,15.6,15,15.3z M24.9,17.8c0,1,0.3,1.9,0.9,2.6v2h-4.5v-0.2v-4.5c0-1.4-1.4-1.4-1.4,0v4.5v0.2h-3.7
			c0-3.3,0-3.7,0-6.9c0,0-0.2,0-0.3,0c0,0,0,0,0,0c1.5-4.2,8-4.2,9.5,0C25,16.1,24.9,16.9,24.9,17.8z M11.7,31.5L0,9.7
			C0,9.4,0,0.3,0,0c0,0,4.3,9.5,7.8,15.5v-4.1h3.9V31.5z"/>
	</g>
</g>
</svg>
